<svg width="960" height="720" viewBox="0 0 960 720" fill="none" xmlns="http://www.w3.org/2000/svg">
  <rect width="960" height="720" rx="36" fill="#F4E6D7"/>
  <rect x="46" y="46" width="868" height="628" rx="28" fill="#FFF9F2"/>
  <rect x="96" y="108" width="352" height="504" rx="28" fill="#F2E2CC"/>
  <path d="M180 556C220 474 245 392 252 308C258 228 288 170 342 126" stroke="#6E8D57" stroke-width="18" stroke-linecap="round"/>
  <path d="M204 546C278 500 328 430 354 336" stroke="#557548" stroke-width="14" stroke-linecap="round"/>
  <path d="M198 462C248 436 286 386 304 334" stroke="#7DA267" stroke-width="14" stroke-linecap="round"/>
  <circle cx="340" cy="186" r="16" fill="#B64C2F"/>
  <circle cx="362" cy="228" r="17" fill="#C55738"/>
  <circle cx="326" cy="270" r="18" fill="#AF4429"/>
  <circle cx="362" cy="316" r="16" fill="#CF6A48"/>
  <circle cx="314" cy="362" r="18" fill="#BC5032"/>
  <circle cx="284" cy="414" r="16" fill="#CA6240"/>
  <circle cx="244" cy="468" r="18" fill="#B84A2E"/>
  <rect x="514" y="108" width="328" height="216" rx="28" fill="#1E5B45"/>
  <rect x="552" y="146" width="252" height="140" rx="22" fill="#FFF9F2"/>
  <rect x="586" y="178" width="102" height="18" rx="9" fill="#C97A34"/>
  <rect x="586" y="214" width="140" height="18" rx="9" fill="#91B879"/>
  <rect x="586" y="250" width="86" height="14" rx="7" fill="#D7BE9D"/>
  <rect x="514" y="368" width="328" height="244" rx="28" fill="#F2E2CC"/>
  <rect x="558" y="410" width="240" height="160" rx="22" fill="#FFF9F2"/>
  <circle cx="624" cy="470" r="18" fill="#B84A2E"/>
  <circle cx="674" cy="470" r="18" fill="#CB6340"/>
  <circle cx="724" cy="470" r="18" fill="#B84A2E"/>
  <circle cx="624" cy="520" r="18" fill="#CF6A48"/>
  <circle cx="674" cy="520" r="18" fill="#B3472B"/>
  <circle cx="724" cy="520" r="18" fill="#CC6440"/>
</svg>
